<svg xmlns="http://www.w3.org/2000/svg" viewBox="0 0 240 240" role="img" aria-labelledby="title desc">
  <title id="title">Yash Veera Films</title>
  <desc id="desc">Gold Yash Veera Films seal</desc>
  <circle cx="120" cy="120" r="113" fill="#050505" stroke="#d7a84d" stroke-width="5"/>
  <circle cx="120" cy="120" r="103" fill="none" stroke="#8c6425" stroke-width="1"/>
  <path d="M82 105c5-25 24-43 38-43s33 18 38 43c-8-8-17-12-38-12s-30 4-38 12Z" fill="#f0ede7" stroke="#d7a84d" stroke-width="3"/>
  <path d="M91 105c-4 17-1 34 10 46l-7 17 15-7 11 12 11-12 15 7-7-17c11-12 14-29 10-46-11 8-37 8-48 0Z" fill="#f0ede7" stroke="#d7a84d" stroke-width="3"/>
  <path d="M103 104h8m18 0h8M114 121h12m-6 0v10" fill="none" stroke="#050505" stroke-width="4" stroke-linecap="round"/>
  <path d="M68 157c-16 7-25 15-31 26m135-26c16 7 25 15 31 26" fill="none" stroke="#d7a84d" stroke-width="3" stroke-linecap="round"/>
  <text x="120" y="189" fill="#d7a84d" font-family="Georgia,serif" font-size="19" font-weight="bold" letter-spacing="2" text-anchor="middle">YASH VEERA</text>
  <path d="M72 198h96" stroke="#d7a84d" stroke-width="2"/>
  <text x="120" y="218" fill="#f0ede7" font-family="Georgia,serif" font-size="12" letter-spacing="5" text-anchor="middle">FILMS</text>
</svg>
